{"accessors":[{"bufferView":2,"componentType":5126,"count":68,"max":[-2.786052703857422,11.537374496459961,21.982666015625],"min":[-57.94995880126953,-11.537374496459961,-31.900428771972656],"type":"VEC3"},{"bufferView":2,"byteOffset":816,"componentType":5126,"count":68,"max":[0.9863238334655762,0.9919307827949524,0.9708712697029114],"min":[-0.9835760593414307,-0.9919307827949524,-0.9910364747047424],"type":"VEC3"},{"bufferView":1,"componentType":5126,"count":68,"max":[0.9739091396331787,0.9301798939704895],"min":[0.022635625675320625,0.022517109289765358],"type":"VEC2"},{"bufferView":0,"componentType":5125,"count":108,"type":"SCALAR"},{"bufferView":2,"byteOffset":1632,"componentType":5126,"count":68,"max":[-2.786052703857422,11.537374496459961,21.982666015625],"min":[-57.94995880126953,-11.537374496459961,-31.900428771972656],"type":"VEC3"},{"bufferView":2,"byteOffset":2448,"componentType":5126,"count":68,"max":[0.9863238334655762,0.9919307827949524,0.9708712697029114],"min":[-0.9835760593414307,-0.9919307827949524,-0.9910364747047424],"type":"VEC3"},{"bufferView":1,"byteOffset":544,"componentType":5126,"count":68,"max":[0.9739091396331787,0.9301798939704895],"min":[0.022635625675320625,0.022517109289765358],"type":"VEC2"},{"bufferView":0,"byteOffset":432,"componentType":5125,"count":108,"type":"SCALAR"},{"bufferView":2,"byteOffset":3264,"componentType":5126,"count":68,"max":[-2.786052703857422,11.537374496459961,21.982666015625],"min":[-57.94995880126953,-11.537374496459961,-31.900428771972656],"type":"VEC3"},{"bufferView":2,"byteOffset":4080,"componentType":5126,"count":68,"max":[0.9863238334655762,0.9919307827949524,0.9708712697029114],"min":[-0.9835760593414307,-0.9919307827949524,-0.9910364747047424],"type":"VEC3"},{"bufferView":1,"byteOffset":1088,"componentType":5126,"count":68,"max":[0.9739091396331787,0.9301798939704895],"min":[0.022635625675320625,0.022517109289765358],"type":"VEC2"},{"bufferView":0,"byteOffset":864,"componentType":5125,"count":108,"type":"SCALAR"},{"bufferView":2,"byteOffset":4896,"componentType":5126,"count":39,"max":[18.21196174621582,15.772022247314453,35.543190002441406],"min":[-18.21196174621582,-15.772022247314453,-10],"type":"VEC3"},{"bufferView":2,"byteOffset":5364,"componentType":5126,"count":39,"max":[0.9886187314987183,0.8561689257621765,0.8980552554130554],"min":[-0.9886187314987183,-0.8561688661575317,-1],"type":"VEC3"},{"bufferView":1,"byteOffset":1632,"componentType":5126,"count":39,"max":[0.7959614992141724,0.9767426252365112],"min":[0.016552815213799477,0.44389525055885315],"type":"VEC2"},{"bufferView":0,"byteOffset":1296,"componentType":5125,"count":102,"type":"SCALAR"},{"bufferView":3,"componentType":5126,"count":41,"max":[1.3333333730697632],"min":[0],"type":"SCALAR"},{"bufferView":4,"componentType":5126,"count":41,"max":[6.535981178283691,41.430335998535156,0],"min":[-18.030237197875977,22.13137435913086,-4.1575654563530406e-7],"type":"VEC3"},{"bufferView":3,"byteOffset":164,"componentType":5126,"count":38,"max":[1.3333333730697632],"min":[0],"type":"SCALAR"},{"bufferView":5,"componentType":5126,"count":38,"max":[-0.5963678359985352,0.37992820143699646,0,0.7071067690849304],"min":[-0.7071067690849304,0,-0.37992820143699646,0.5963678359985352],"type":"VEC4"},{"bufferView":3,"byteOffset":316,"componentType":5126,"count":41,"max":[1.3333333730697632],"min":[0],"type":"SCALAR"},{"bufferView":4,"byteOffset":492,"componentType":5126,"count":41,"max":[6.242664337158203,33.76471710205078,0],"min":[-0.1804666519165039,21.577661514282227,-3.6134188175201416],"type":"VEC3"},{"bufferView":3,"byteOffset":480,"componentType":5126,"count":38,"max":[1.3333333730697632],"min":[0],"type":"SCALAR"},{"bufferView":5,"byteOffset":608,"componentType":5126,"count":38,"max":[-0.3535537123680115,0.6272112131118774,0.6272112727165222,0.4777146875858307],"min":[-0.5609857439994812,0.5213335752487183,0.43045902252197266,0.3265058100223541],"type":"VEC4"},{"bufferView":3,"byteOffset":632,"componentType":5126,"count":41,"max":[1.3333333730697632],"min":[0],"type":"SCALAR"},{"bufferView":4,"byteOffset":984,"componentType":5126,"count":41,"max":[6.242664337158203,33.76471710205078,3.704681396484375],"min":[-0.1804666519165039,22.17646026611328,-3.540383772815403e-7],"type":"VEC3"},{"bufferView":3,"byteOffset":796,"componentType":5126,"count":41,"max":[1.3333333730697632],"min":[0],"type":"SCALAR"},{"bufferView":5,"byteOffset":1216,"componentType":5126,"count":41,"max":[0.47771456837654114,0.6272114515304565,0.6272113919258118,0.5609856247901917],"min":[-0.43045949935913086,-0.47771430015563965,-0.5989446640014648,-0.4917551279067993],"type":"VEC4"},{"bufferView":3,"byteOffset":960,"componentType":5126,"count":38,"max":[1.3333333730697632],"min":[0],"type":"SCALAR"},{"bufferView":4,"byteOffset":1476,"componentType":5126,"count":38,"max":[4.374940872192383,40.498348236083984,0],"min":[-5.1963043212890625,28.66107940673828,0],"type":"VEC3"},{"bufferView":3,"byteOffset":1112,"componentType":5126,"count":16,"max":[1.3333333730697632],"min":[0],"type":"SCALAR"},{"bufferView":5,"byteOffset":1872,"componentType":5126,"count":16,"max":[-0.6743797063827515,0.21263110637664795,0.09229595959186554,0.7071067690849304],"min":[-0.7071067690849304,-0.09229595959186554,-0.21263110637664795,0.6743797063827515],"type":"VEC4"}],"animations":[{"channels":[{"sampler":0,"target":{"node":4,"path":"translation"}},{"sampler":1,"target":{"node":4,"path":"rotation"}},{"sampler":2,"target":{"node":6,"path":"translation"}},{"sampler":3,"target":{"node":6,"path":"rotation"}},{"sampler":4,"target":{"node":8,"path":"translation"}},{"sampler":5,"target":{"node":8,"path":"rotation"}},{"sampler":6,"target":{"node":10,"path":"translation"}},{"sampler":7,"target":{"node":10,"path":"rotation"}}],"name":"Take 001","samplers":[{"input":16,"interpolation":"LINEAR","output":17},{"input":18,"interpolation":"LINEAR","output":19},{"input":20,"interpolation":"LINEAR","output":21},{"input":22,"interpolation":"LINEAR","output":23},{"input":24,"interpolation":"LINEAR","output":25},{"input":26,"interpolation":"LINEAR","output":27},{"input":28,"interpolation":"LINEAR","output":29},{"input":30,"interpolation":"LINEAR","output":31}]}],"asset":{"extras":{"author":"l0wpoly (https://sketchfab.com/l0wpoly)","license":"CC-BY-4.0 (http://creativecommons.org/licenses/by/4.0/)","source":"https://sketchfab.com/3d-models/mechanical-spider-a197c1c6c58e48118a6bad3e4db89115","title":"Mechanical spider"},"generator":"Sketchfab-10.60.0","version":"2.0"},"bufferViews":[{"buffer":0,"byteLength":1704,"name":"floatBufferViews","target":34963},{"buffer":0,"byteLength":1944,"byteOffset":1704,"byteStride":8,"name":"floatBufferViews","target":34962},{"buffer":0,"byteLength":5832,"byteOffset":3648,"byteStride":12,"name":"floatBufferViews","target":34962},{"buffer":0,"byteLength":1176,"byteOffset":9480,"name":"floatBufferViews"},{"buffer":0,"byteLength":1932,"byteOffset":10656,"byteStride":12,"name":"floatBufferViews"},{"buffer":0,"byteLength":2128,"byteOffset":12588,"byteStride":16,"name":"floatBufferViews"}],"buffers":[{"byteLength":14716,"uri":"data:application/octet-stream;base64,"}],"images":[{"uri":"data:application/octet-stream;base64,"},{"uri":"data:application/octet-stream;base64,"}],"materials":[{"doubleSided":true,"emissiveFactor":[1,1,1],"emissiveTexture":{"index":1},"name":"speeder","pbrMetallicRoughness":{"baseColorTexture":{"index":0},"metallicFactor":0.11723333880548918,"roughnessFactor":0.5969985225179213}}],"meshes":[{"name":"speeder_leg1_speeder_0","primitives":[{"attributes":{"NORMAL":1,"POSITION":0,"TEXCOORD_0":2},"indices":3,"material":0,"mode":4}]},{"name":"speeder_leg02_speeder_0","primitives":[{"attributes":{"NORMAL":5,"POSITION":4,"TEXCOORD_0":6},"indices":7,"material":0,"mode":4}]},{"name":"speeder_leg03_speeder_0","primitives":[{"attributes":{"NORMAL":9,"POSITION":8,"TEXCOORD_0":10},"indices":11,"material":0,"mode":4}]},{"name":"speeder_head_speeder_0","primitives":[{"attributes":{"NORMAL":13,"POSITION":12,"TEXCOORD_0":14},"indices":15,"material":0,"mode":4}]}],"nodes":[{"children":[1],"matrix":[1,0,0,0,0,2.220446049250313e-16,-1,0,0,1,2.220446049250313e-16,0,0,0,0,1],"name":"Sketchfab_model"},{"children":[2],"matrix":[1,0,0,0,0,0,1,0,0,-1,0,0,0,0,0,1],"name":"ff03731399ce4552b736fb2a7ed26791.fbx"},{"children":[3],"name":"Object_2"},{"children":[4,6,8,10],"name":"RootNode"},{"children":[5],"name":"speeder_leg1","rotation":[-0.6963642835617065,0.12278781086206436,-0.12278781086206436,0.6963642835617065],"translation":[-8.34130573272705,31.64277458190918,0]},{"mesh":0,"name":"speeder_leg1_speeder_0"},{"children":[7],"name":"speeder_leg02","rotation":[-0.35355353355407715,0.6123723387718201,0.6123723387718201,0.35355353355407715],"translation":[0,31.64277458190918,0]},{"mesh":1,"name":"speeder_leg02_speeder_0"},{"children":[9],"name":"speeder_leg03","rotation":[0.4777146279811859,0.5213336944580078,0.5213336944580078,-0.4777146279811859],"translation":[0,31.64277458190918,0]},{"mesh":2,"name":"speeder_leg03_speeder_0"},{"children":[11],"name":"speeder_head","rotation":[-0.7071068286895752,-7.408627045180083e-10,-5.762265109510167e-10,0.7071068286895752],"scale":[1.3289499282836914,1.3289499282836914,1.3289499282836914],"translation":[0,36.08539581298828,0]},{"mesh":3,"name":"speeder_head_speeder_0"}],"samplers":[{"magFilter":9729,"minFilter":9987,"wrapS":10497,"wrapT":10497}],"scene":0,"scenes":[{"name":"Sketchfab_Scene","nodes":[0]}],"textures":[{"sampler":0,"source":0},{"sampler":0,"source":1}]}